<mxfile host="Electron" modified="2024-01-07T07:15:42.932Z" agent="Mozilla/5.0 (Windows NT 10.0; Win64; x64) AppleWebKit/537.36 (KHTML, like Gecko) draw.io/22.1.16 Chrome/120.0.6099.109 Electron/28.1.0 Safari/537.36" etag="glfb8yY-nguw6thjBUhP" version="22.1.16" type="device">
  <diagram name="Page-1" id="2YBvvXClWsGukQMizWep">
    <mxGraphModel dx="1215" dy="585" grid="1" gridSize="10" guides="1" tooltips="1" connect="1" arrows="1" fold="1" page="1" pageScale="1" pageWidth="850" pageHeight="1100" math="0" shadow="0">
      <root>
        <mxCell id="0" />
        <mxCell id="1" parent="0" />
        <mxCell id="aM9ryv3xv72pqoxQDRHE-1" value="OPC server" style="shape=umlLifeline;perimeter=lifelinePerimeter;whiteSpace=wrap;html=1;container=0;dropTarget=0;collapsible=0;recursiveResize=0;outlineConnect=0;portConstraint=eastwest;newEdgeStyle={&quot;edgeStyle&quot;:&quot;elbowEdgeStyle&quot;,&quot;elbow&quot;:&quot;vertical&quot;,&quot;curved&quot;:0,&quot;rounded&quot;:0};" parent="1" vertex="1">
          <mxGeometry x="110" y="10" width="100" height="500" as="geometry" />
        </mxCell>
        <mxCell id="aM9ryv3xv72pqoxQDRHE-2" value="" style="html=1;points=[];perimeter=orthogonalPerimeter;outlineConnect=0;targetShapes=umlLifeline;portConstraint=eastwest;newEdgeStyle={&quot;edgeStyle&quot;:&quot;elbowEdgeStyle&quot;,&quot;elbow&quot;:&quot;vertical&quot;,&quot;curved&quot;:0,&quot;rounded&quot;:0};" parent="aM9ryv3xv72pqoxQDRHE-1" vertex="1">
          <mxGeometry x="45" y="70" width="10" height="370" as="geometry" />
        </mxCell>
        <mxCell id="aM9ryv3xv72pqoxQDRHE-3" value="Тэги данных с датчиков" style="html=1;verticalAlign=bottom;startArrow=oval;endArrow=block;startSize=8;edgeStyle=elbowEdgeStyle;elbow=vertical;curved=0;rounded=0;" parent="aM9ryv3xv72pqoxQDRHE-1" target="aM9ryv3xv72pqoxQDRHE-2" edge="1">
          <mxGeometry relative="1" as="geometry">
            <mxPoint x="-80" y="70" as="sourcePoint" />
          </mxGeometry>
        </mxCell>
        <mxCell id="wMBAzyyKOQ_RzPIN1cTE-32" value="" style="html=1;points=[];perimeter=orthogonalPerimeter;outlineConnect=0;targetShapes=umlLifeline;portConstraint=eastwest;newEdgeStyle={&quot;edgeStyle&quot;:&quot;elbowEdgeStyle&quot;,&quot;elbow&quot;:&quot;vertical&quot;,&quot;curved&quot;:0,&quot;rounded&quot;:0};" vertex="1" parent="aM9ryv3xv72pqoxQDRHE-1">
          <mxGeometry x="50" y="80" width="10" height="60" as="geometry" />
        </mxCell>
        <mxCell id="aM9ryv3xv72pqoxQDRHE-5" value="OPC client" style="shape=umlLifeline;perimeter=lifelinePerimeter;whiteSpace=wrap;html=1;container=0;dropTarget=0;collapsible=0;recursiveResize=0;outlineConnect=0;portConstraint=eastwest;newEdgeStyle={&quot;edgeStyle&quot;:&quot;elbowEdgeStyle&quot;,&quot;elbow&quot;:&quot;vertical&quot;,&quot;curved&quot;:0,&quot;rounded&quot;:0};" parent="1" vertex="1">
          <mxGeometry x="290" y="10" width="100" height="500" as="geometry" />
        </mxCell>
        <mxCell id="aM9ryv3xv72pqoxQDRHE-6" value="" style="html=1;points=[];perimeter=orthogonalPerimeter;outlineConnect=0;targetShapes=umlLifeline;portConstraint=eastwest;newEdgeStyle={&quot;edgeStyle&quot;:&quot;elbowEdgeStyle&quot;,&quot;elbow&quot;:&quot;vertical&quot;,&quot;curved&quot;:0,&quot;rounded&quot;:0};" parent="aM9ryv3xv72pqoxQDRHE-5" vertex="1">
          <mxGeometry x="45" y="80" width="10" height="340" as="geometry" />
        </mxCell>
        <mxCell id="wMBAzyyKOQ_RzPIN1cTE-30" value="" style="html=1;points=[];perimeter=orthogonalPerimeter;outlineConnect=0;targetShapes=umlLifeline;portConstraint=eastwest;newEdgeStyle={&quot;edgeStyle&quot;:&quot;elbowEdgeStyle&quot;,&quot;elbow&quot;:&quot;vertical&quot;,&quot;curved&quot;:0,&quot;rounded&quot;:0};" vertex="1" parent="aM9ryv3xv72pqoxQDRHE-5">
          <mxGeometry x="50" y="100" width="10" height="50" as="geometry" />
        </mxCell>
        <mxCell id="aM9ryv3xv72pqoxQDRHE-7" value="Привязка тэгов к параметрам&amp;nbsp;" style="html=1;verticalAlign=bottom;endArrow=block;edgeStyle=elbowEdgeStyle;elbow=vertical;curved=0;rounded=0;" parent="1" source="wMBAzyyKOQ_RzPIN1cTE-32" target="wMBAzyyKOQ_RzPIN1cTE-30" edge="1">
          <mxGeometry relative="1" as="geometry">
            <mxPoint x="170" y="110" as="sourcePoint" />
            <Array as="points">
              <mxPoint x="230" y="110" />
            </Array>
            <mxPoint x="340" y="110" as="targetPoint" />
          </mxGeometry>
        </mxCell>
        <mxCell id="wMBAzyyKOQ_RzPIN1cTE-1" value="Validation service" style="shape=umlLifeline;perimeter=lifelinePerimeter;whiteSpace=wrap;html=1;container=0;dropTarget=0;collapsible=0;recursiveResize=0;outlineConnect=0;portConstraint=eastwest;newEdgeStyle={&quot;edgeStyle&quot;:&quot;elbowEdgeStyle&quot;,&quot;elbow&quot;:&quot;vertical&quot;,&quot;curved&quot;:0,&quot;rounded&quot;:0};" vertex="1" parent="1">
          <mxGeometry x="450" y="10" width="100" height="500" as="geometry" />
        </mxCell>
        <mxCell id="wMBAzyyKOQ_RzPIN1cTE-2" value="" style="html=1;points=[];perimeter=orthogonalPerimeter;outlineConnect=0;targetShapes=umlLifeline;portConstraint=eastwest;newEdgeStyle={&quot;edgeStyle&quot;:&quot;elbowEdgeStyle&quot;,&quot;elbow&quot;:&quot;vertical&quot;,&quot;curved&quot;:0,&quot;rounded&quot;:0};" vertex="1" parent="wMBAzyyKOQ_RzPIN1cTE-1">
          <mxGeometry x="45" y="80" width="10" height="340" as="geometry" />
        </mxCell>
        <mxCell id="wMBAzyyKOQ_RzPIN1cTE-34" value="" style="html=1;points=[];perimeter=orthogonalPerimeter;outlineConnect=0;targetShapes=umlLifeline;portConstraint=eastwest;newEdgeStyle={&quot;edgeStyle&quot;:&quot;elbowEdgeStyle&quot;,&quot;elbow&quot;:&quot;vertical&quot;,&quot;curved&quot;:0,&quot;rounded&quot;:0};" vertex="1" parent="wMBAzyyKOQ_RzPIN1cTE-1">
          <mxGeometry x="50" y="120" width="10" height="40" as="geometry" />
        </mxCell>
        <mxCell id="wMBAzyyKOQ_RzPIN1cTE-44" value="" style="html=1;points=[];perimeter=orthogonalPerimeter;outlineConnect=0;targetShapes=umlLifeline;portConstraint=eastwest;newEdgeStyle={&quot;edgeStyle&quot;:&quot;elbowEdgeStyle&quot;,&quot;elbow&quot;:&quot;vertical&quot;,&quot;curved&quot;:0,&quot;rounded&quot;:0};" vertex="1" parent="wMBAzyyKOQ_RzPIN1cTE-1">
          <mxGeometry x="40" y="360" width="10" height="40" as="geometry" />
        </mxCell>
        <mxCell id="wMBAzyyKOQ_RzPIN1cTE-3" value="Валидация параметров" style="html=1;verticalAlign=bottom;endArrow=block;edgeStyle=elbowEdgeStyle;elbow=vertical;curved=0;rounded=0;" edge="1" parent="1" source="wMBAzyyKOQ_RzPIN1cTE-30" target="wMBAzyyKOQ_RzPIN1cTE-34">
          <mxGeometry relative="1" as="geometry">
            <mxPoint x="370" y="130" as="sourcePoint" />
            <Array as="points">
              <mxPoint x="380" y="130" />
              <mxPoint x="465" y="120" />
            </Array>
            <mxPoint x="510" y="120" as="targetPoint" />
          </mxGeometry>
        </mxCell>
        <mxCell id="wMBAzyyKOQ_RzPIN1cTE-7" value="Collector" style="shape=umlLifeline;perimeter=lifelinePerimeter;whiteSpace=wrap;html=1;container=0;dropTarget=0;collapsible=0;recursiveResize=0;outlineConnect=0;portConstraint=eastwest;newEdgeStyle={&quot;edgeStyle&quot;:&quot;elbowEdgeStyle&quot;,&quot;elbow&quot;:&quot;vertical&quot;,&quot;curved&quot;:0,&quot;rounded&quot;:0};" vertex="1" parent="1">
          <mxGeometry x="610" y="10" width="100" height="500" as="geometry" />
        </mxCell>
        <mxCell id="wMBAzyyKOQ_RzPIN1cTE-8" value="" style="html=1;points=[];perimeter=orthogonalPerimeter;outlineConnect=0;targetShapes=umlLifeline;portConstraint=eastwest;newEdgeStyle={&quot;edgeStyle&quot;:&quot;elbowEdgeStyle&quot;,&quot;elbow&quot;:&quot;vertical&quot;,&quot;curved&quot;:0,&quot;rounded&quot;:0};" vertex="1" parent="wMBAzyyKOQ_RzPIN1cTE-7">
          <mxGeometry x="45" y="80" width="10" height="170" as="geometry" />
        </mxCell>
        <mxCell id="wMBAzyyKOQ_RzPIN1cTE-37" value="" style="html=1;points=[];perimeter=orthogonalPerimeter;outlineConnect=0;targetShapes=umlLifeline;portConstraint=eastwest;newEdgeStyle={&quot;edgeStyle&quot;:&quot;elbowEdgeStyle&quot;,&quot;elbow&quot;:&quot;vertical&quot;,&quot;curved&quot;:0,&quot;rounded&quot;:0};" vertex="1" parent="wMBAzyyKOQ_RzPIN1cTE-7">
          <mxGeometry x="50" y="130" width="10" height="90" as="geometry" />
        </mxCell>
        <mxCell id="wMBAzyyKOQ_RzPIN1cTE-9" value="Database" style="shape=umlLifeline;perimeter=lifelinePerimeter;whiteSpace=wrap;html=1;container=0;dropTarget=0;collapsible=0;recursiveResize=0;outlineConnect=0;portConstraint=eastwest;newEdgeStyle={&quot;edgeStyle&quot;:&quot;elbowEdgeStyle&quot;,&quot;elbow&quot;:&quot;vertical&quot;,&quot;curved&quot;:0,&quot;rounded&quot;:0};" vertex="1" parent="1">
          <mxGeometry x="770" y="10" width="100" height="500" as="geometry" />
        </mxCell>
        <mxCell id="wMBAzyyKOQ_RzPIN1cTE-10" value="" style="html=1;points=[];perimeter=orthogonalPerimeter;outlineConnect=0;targetShapes=umlLifeline;portConstraint=eastwest;newEdgeStyle={&quot;edgeStyle&quot;:&quot;elbowEdgeStyle&quot;,&quot;elbow&quot;:&quot;vertical&quot;,&quot;curved&quot;:0,&quot;rounded&quot;:0};" vertex="1" parent="wMBAzyyKOQ_RzPIN1cTE-9">
          <mxGeometry x="45" y="80" width="10" height="260" as="geometry" />
        </mxCell>
        <mxCell id="wMBAzyyKOQ_RzPIN1cTE-14" value="Записать в БД" style="html=1;verticalAlign=bottom;endArrow=block;edgeStyle=elbowEdgeStyle;elbow=vertical;curved=0;rounded=0;" edge="1" parent="1" source="wMBAzyyKOQ_RzPIN1cTE-37" target="wMBAzyyKOQ_RzPIN1cTE-10">
          <mxGeometry relative="1" as="geometry">
            <mxPoint x="665" y="110" as="sourcePoint" />
            <Array as="points">
              <mxPoint x="740" y="160" />
            </Array>
            <mxPoint x="1135" y="160" as="targetPoint" />
          </mxGeometry>
        </mxCell>
        <mxCell id="wMBAzyyKOQ_RzPIN1cTE-16" value="Remote calculation service" style="shape=umlLifeline;perimeter=lifelinePerimeter;whiteSpace=wrap;html=1;container=0;dropTarget=0;collapsible=0;recursiveResize=0;outlineConnect=0;portConstraint=eastwest;newEdgeStyle={&quot;edgeStyle&quot;:&quot;elbowEdgeStyle&quot;,&quot;elbow&quot;:&quot;vertical&quot;,&quot;curved&quot;:0,&quot;rounded&quot;:0};" vertex="1" parent="1">
          <mxGeometry x="1190" y="10" width="100" height="500" as="geometry" />
        </mxCell>
        <mxCell id="wMBAzyyKOQ_RzPIN1cTE-17" value="" style="html=1;points=[];perimeter=orthogonalPerimeter;outlineConnect=0;targetShapes=umlLifeline;portConstraint=eastwest;newEdgeStyle={&quot;edgeStyle&quot;:&quot;elbowEdgeStyle&quot;,&quot;elbow&quot;:&quot;vertical&quot;,&quot;curved&quot;:0,&quot;rounded&quot;:0};" vertex="1" parent="wMBAzyyKOQ_RzPIN1cTE-16">
          <mxGeometry x="45" y="210" width="10" height="110" as="geometry" />
        </mxCell>
        <mxCell id="wMBAzyyKOQ_RzPIN1cTE-39" value="Рассчет &lt;br&gt;новых&lt;br&gt;параметров" style="html=1;align=left;spacingLeft=2;endArrow=block;rounded=0;edgeStyle=orthogonalEdgeStyle;curved=0;rounded=0;" edge="1" parent="wMBAzyyKOQ_RzPIN1cTE-16" source="wMBAzyyKOQ_RzPIN1cTE-16" target="wMBAzyyKOQ_RzPIN1cTE-17">
          <mxGeometry x="-0.0645" relative="1" as="geometry">
            <mxPoint x="60" y="190" as="sourcePoint" />
            <Array as="points">
              <mxPoint x="110" y="210" />
              <mxPoint x="110" y="290" />
            </Array>
            <mxPoint x="65" y="220" as="targetPoint" />
            <mxPoint as="offset" />
          </mxGeometry>
        </mxCell>
        <mxCell id="wMBAzyyKOQ_RzPIN1cTE-18" value="Послать на передачу в расчетный сервис" style="html=1;verticalAlign=bottom;endArrow=block;edgeStyle=elbowEdgeStyle;elbow=vertical;curved=0;rounded=0;" edge="1" parent="1">
          <mxGeometry x="-0.2123" relative="1" as="geometry">
            <mxPoint x="670" y="210" as="sourcePoint" />
            <Array as="points" />
            <mxPoint x="975" y="210.1428571428571" as="targetPoint" />
            <mxPoint as="offset" />
          </mxGeometry>
        </mxCell>
        <mxCell id="wMBAzyyKOQ_RzPIN1cTE-31" value="ack" style="html=1;verticalAlign=bottom;endArrow=open;dashed=1;endSize=8;curved=0;rounded=0;" edge="1" parent="1">
          <mxGeometry relative="1" as="geometry">
            <mxPoint x="350" y="150" as="targetPoint" />
            <mxPoint x="495" y="150" as="sourcePoint" />
          </mxGeometry>
        </mxCell>
        <mxCell id="wMBAzyyKOQ_RzPIN1cTE-33" value="ack" style="html=1;verticalAlign=bottom;endArrow=open;dashed=1;endSize=8;curved=0;rounded=0;" edge="1" parent="1" source="aM9ryv3xv72pqoxQDRHE-6" target="wMBAzyyKOQ_RzPIN1cTE-32">
          <mxGeometry relative="1" as="geometry">
            <mxPoint x="170" y="130" as="targetPoint" />
            <mxPoint x="340" y="130" as="sourcePoint" />
            <Array as="points">
              <mxPoint x="240" y="130" />
            </Array>
          </mxGeometry>
        </mxCell>
        <mxCell id="wMBAzyyKOQ_RzPIN1cTE-35" value="Передать параметры" style="html=1;verticalAlign=bottom;endArrow=block;edgeStyle=elbowEdgeStyle;elbow=vertical;curved=0;rounded=0;" edge="1" parent="1" source="wMBAzyyKOQ_RzPIN1cTE-34" target="wMBAzyyKOQ_RzPIN1cTE-37">
          <mxGeometry relative="1" as="geometry">
            <mxPoint x="525" y="140" as="sourcePoint" />
            <Array as="points">
              <mxPoint x="555" y="140" />
              <mxPoint x="640" y="130" />
            </Array>
            <mxPoint x="640" y="140" as="targetPoint" />
          </mxGeometry>
        </mxCell>
        <mxCell id="wMBAzyyKOQ_RzPIN1cTE-36" value="ack" style="html=1;verticalAlign=bottom;endArrow=open;dashed=1;endSize=8;curved=0;rounded=0;" edge="1" parent="1">
          <mxGeometry relative="1" as="geometry">
            <mxPoint x="510" y="160" as="targetPoint" />
            <mxPoint x="655" y="160" as="sourcePoint" />
          </mxGeometry>
        </mxCell>
        <mxCell id="wMBAzyyKOQ_RzPIN1cTE-38" value="ack" style="html=1;verticalAlign=bottom;endArrow=open;dashed=1;endSize=8;curved=0;rounded=0;" edge="1" parent="1">
          <mxGeometry relative="1" as="geometry">
            <mxPoint x="670" y="180" as="targetPoint" />
            <mxPoint x="815" y="180" as="sourcePoint" />
          </mxGeometry>
        </mxCell>
        <mxCell id="wMBAzyyKOQ_RzPIN1cTE-45" value="Transmitter" style="shape=umlLifeline;perimeter=lifelinePerimeter;whiteSpace=wrap;html=1;container=0;dropTarget=0;collapsible=0;recursiveResize=0;outlineConnect=0;portConstraint=eastwest;newEdgeStyle={&quot;edgeStyle&quot;:&quot;elbowEdgeStyle&quot;,&quot;elbow&quot;:&quot;vertical&quot;,&quot;curved&quot;:0,&quot;rounded&quot;:0};" vertex="1" parent="1">
          <mxGeometry x="930" y="10" width="100" height="500" as="geometry" />
        </mxCell>
        <mxCell id="wMBAzyyKOQ_RzPIN1cTE-46" value="" style="html=1;points=[];perimeter=orthogonalPerimeter;outlineConnect=0;targetShapes=umlLifeline;portConstraint=eastwest;newEdgeStyle={&quot;edgeStyle&quot;:&quot;elbowEdgeStyle&quot;,&quot;elbow&quot;:&quot;vertical&quot;,&quot;curved&quot;:0,&quot;rounded&quot;:0};" vertex="1" parent="wMBAzyyKOQ_RzPIN1cTE-45">
          <mxGeometry x="45" y="180" width="10" height="190" as="geometry" />
        </mxCell>
        <mxCell id="wMBAzyyKOQ_RzPIN1cTE-47" value="Передать параметры в расчетный сервис" style="html=1;verticalAlign=bottom;endArrow=block;edgeStyle=elbowEdgeStyle;elbow=vertical;curved=0;rounded=0;" edge="1" parent="1" source="wMBAzyyKOQ_RzPIN1cTE-46" target="wMBAzyyKOQ_RzPIN1cTE-17">
          <mxGeometry relative="1" as="geometry">
            <mxPoint x="1000" y="210" as="sourcePoint" />
            <Array as="points">
              <mxPoint x="1040" y="220" />
              <mxPoint x="1070" y="210" />
            </Array>
            <mxPoint x="1145" y="210" as="targetPoint" />
          </mxGeometry>
        </mxCell>
        <mxCell id="wMBAzyyKOQ_RzPIN1cTE-48" value="ack" style="html=1;verticalAlign=bottom;endArrow=open;dashed=1;endSize=8;curved=0;rounded=0;" edge="1" parent="1" source="wMBAzyyKOQ_RzPIN1cTE-46" target="wMBAzyyKOQ_RzPIN1cTE-37">
          <mxGeometry x="-0.377" relative="1" as="geometry">
            <mxPoint x="667.5" y="230" as="targetPoint" />
            <mxPoint x="972.5" y="230" as="sourcePoint" />
            <mxPoint as="offset" />
          </mxGeometry>
        </mxCell>
        <mxCell id="wMBAzyyKOQ_RzPIN1cTE-49" value="Передать новые параметры на валидацию" style="html=1;verticalAlign=bottom;endArrow=open;dashed=1;endSize=8;curved=0;rounded=0;" edge="1" parent="1" source="wMBAzyyKOQ_RzPIN1cTE-46" target="wMBAzyyKOQ_RzPIN1cTE-44">
          <mxGeometry x="0.1579" relative="1" as="geometry">
            <mxPoint x="800" y="370" as="sourcePoint" />
            <mxPoint x="720" y="370" as="targetPoint" />
            <mxPoint as="offset" />
          </mxGeometry>
        </mxCell>
        <mxCell id="wMBAzyyKOQ_RzPIN1cTE-50" value="Записать &lt;br&gt;новые параметры в БД" style="html=1;verticalAlign=bottom;endArrow=open;dashed=1;endSize=8;curved=0;rounded=0;exitX=-0.129;exitY=0.788;exitDx=0;exitDy=0;exitPerimeter=0;" edge="1" parent="1" source="wMBAzyyKOQ_RzPIN1cTE-46" target="wMBAzyyKOQ_RzPIN1cTE-10">
          <mxGeometry x="-0.0009" relative="1" as="geometry">
            <mxPoint x="975" y="330" as="sourcePoint" />
            <mxPoint x="825" y="330" as="targetPoint" />
            <mxPoint as="offset" />
          </mxGeometry>
        </mxCell>
        <mxCell id="wMBAzyyKOQ_RzPIN1cTE-51" value="Послать новые &lt;br&gt;параметры для &lt;br&gt;передачи на исполнение&amp;nbsp;" style="html=1;verticalAlign=bottom;endArrow=open;dashed=1;endSize=8;curved=0;rounded=0;" edge="1" parent="1" source="wMBAzyyKOQ_RzPIN1cTE-44" target="aM9ryv3xv72pqoxQDRHE-6">
          <mxGeometry relative="1" as="geometry">
            <mxPoint x="345" y="390" as="targetPoint" />
            <mxPoint x="490" y="390" as="sourcePoint" />
          </mxGeometry>
        </mxCell>
        <mxCell id="wMBAzyyKOQ_RzPIN1cTE-52" value="Передать новые &lt;br&gt;параметры на исполнение" style="html=1;verticalAlign=bottom;endArrow=open;dashed=1;endSize=8;curved=0;rounded=0;" edge="1" parent="1" target="aM9ryv3xv72pqoxQDRHE-2">
          <mxGeometry relative="1" as="geometry">
            <mxPoint x="185" y="420" as="targetPoint" />
            <mxPoint x="335" y="420" as="sourcePoint" />
            <mxPoint as="offset" />
          </mxGeometry>
        </mxCell>
        <mxCell id="wMBAzyyKOQ_RzPIN1cTE-53" value="Исполнить &lt;br&gt;по новым параметрам" style="html=1;verticalAlign=bottom;startArrow=oval;endArrow=block;startSize=8;edgeStyle=elbowEdgeStyle;elbow=vertical;curved=0;rounded=0;" edge="1" parent="1">
          <mxGeometry x="0.0074" relative="1" as="geometry">
            <mxPoint x="150" y="440" as="sourcePoint" />
            <mxPoint x="20" y="440" as="targetPoint" />
            <Array as="points" />
            <mxPoint as="offset" />
          </mxGeometry>
        </mxCell>
        <mxCell id="wMBAzyyKOQ_RzPIN1cTE-54" value="Получить рассчитанные параметры" style="html=1;verticalAlign=bottom;endArrow=open;dashed=1;endSize=8;curved=0;rounded=0;" edge="1" parent="1">
          <mxGeometry relative="1" as="geometry">
            <mxPoint x="1235" y="310" as="sourcePoint" />
            <mxPoint x="985" y="310" as="targetPoint" />
          </mxGeometry>
        </mxCell>
      </root>
    </mxGraphModel>
  </diagram>
</mxfile>
